<?xml version="1.0" encoding="UTF-8"?>
<!DOCTYPE svg PUBLIC "-//W3C//DTD SVG 1.1//EN" "http://www.w3.org/Graphics/SVG/1.1/DTD/svg11.dtd">
<!-- Creator: CorelDRAW SE 2024 -->
<svg xmlns="http://www.w3.org/2000/svg" xml:space="preserve" width="297mm" height="210mm" version="1.1" style="shape-rendering:geometricPrecision; text-rendering:geometricPrecision; image-rendering:optimizeQuality; fill-rule:evenodd; clip-rule:evenodd"
viewBox="0 0 29700 21000"
 xmlns:xlink="http://www.w3.org/1999/xlink"
 xmlns:xodm="http://www.corel.com/coreldraw/odm/2003">
 <defs>
  <style type="text/css">
   <![CDATA[
    .fil0 {fill:black}
    .fil1 {fill:#B1CD48;fill-rule:nonzero}
   ]]>
  </style>
 </defs>
 <g id="Warstwa_x0020_1">
  <metadata id="CorelCorpID_0Corel-Layer"/>
  <path class="fil0" d="M24218.93 6806.52c88.98,-290.36 202.86,-563.76 332.29,-794.01 173.38,-308.45 370.62,-619.89 590.66,-897.37 150.05,-189.23 381.21,-463.8 634.5,-497.6 145.37,-19.4 366.2,32.03 533.78,88.31 16.1,-61.76 49.76,-117.85 99.75,-164.8 84.93,-79.77 193.26,-110.83 307.57,-88.21 390.61,77.33 779.3,180.38 1083.22,452.09 2.09,1.87 3.85,3.48 5.9,5.39 218.71,204.71 275.43,525.41 313.29,809.11 127.53,955.39 -77.14,2831.51 -372.84,3752.75 -158.33,493.28 -429.15,1096.39 -725.93,1517.18 -177.23,251.28 -391.42,474.28 -711.24,516.97 -372.41,49.72 -981.03,-110.06 -1238.95,-390.57 -3.27,-3.56 -6,-6.65 -9.13,-10.34 -182.8,-215.26 -250.48,-516.44 -286.94,-789.59 -27.75,-207.87 -33.33,-407.4 -30.31,-617.11 0.98,-68.48 21.24,-132.26 55.95,-185.89 -135.75,-67.23 -256.98,-145.43 -339.86,-220.83 -2.87,-2.61 -5.29,-4.88 -8.07,-7.58 -63.86,-61.9 -120.21,-129.51 -169.28,-201.59 -37.76,90.57 -77.44,179.56 -118.62,266.04 -111.87,234.96 -293.28,620.33 -583.34,659.05 -111.43,14.88 -339.47,-51.46 -449.34,-77.03 -507.03,-105.17 -905.71,-271.36 -981.12,-836.29 -19.06,-142.77 -14.7,-311.07 -10.88,-455.26 2,-75.48 4.97,-151.17 9,-226.85 -202.25,502.63 -338.63,1063.93 -372.84,1600.44 -7.18,112.56 -61.28,206.36 -155.12,268.93 -93.84,62.57 -201.24,76.46 -307.91,39.8 -257.27,-88.4 -509.32,-210.83 -742.45,-351.14 -81.71,-46.12 -153.32,-94.59 -212.78,-150.88 -42.97,152.67 -104.39,291.3 -233.3,399.93 -180.9,157.65 -416.05,266.7 -654.03,298.46 -660.43,88.16 -1074.57,-321.95 -1181.21,-936.08 -12.09,34.51 -24.49,68.77 -37.18,102.75 -195.57,523.68 -544.57,1087.95 -1149.57,1168.71 -218.68,29.19 -401.42,-10.65 -556.65,-96.7 -7.76,125.52 -15.54,251.1 -23.67,376.8 -4.29,137.97 -1.48,278.54 -0.61,416.55 2.02,321.66 3.82,643.28 4.33,964.96 0.18,110.87 -45.97,206.36 -132.94,275.12 -86.98,68.75 -190.54,91.61 -298.38,65.85 -290.22,-69.32 -553.65,-178.22 -810.6,-329.48 -226.36,-133.26 -355.86,-278.73 -391.29,-544.16 -20.74,-155.39 -30.19,-317.61 -39.93,-474.11 -14.26,-229.33 -25.14,-459.02 -34.53,-688.6 -4.46,-109.15 -8.74,-218.58 -12.64,-328.17 -166.96,359.62 -400.39,673.73 -705.74,714.48 -278.3,37.15 -669.56,-121.98 -899.95,-278.65 -5.63,-3.83 -10.33,-7.23 -15.74,-11.36 -211.53,-161.7 -334.79,-359.59 -370.2,-624.91 -28.75,-215.35 -13.04,-500.3 10.63,-757.87 -205.95,512.21 -362.89,1099.61 -399.77,1642.57 -7.39,108.68 -58.21,199.19 -147.16,262.08 -88.94,62.88 -191.23,80.6 -296.15,51.31 -214.66,-59.92 -455.22,-150.32 -659.81,-240.34 -272.95,-108.67 -420.91,-251.79 -461.02,-552.26 -19.71,-147.6 -24.75,-313.23 -21.76,-481.4 -10.58,39.12 -21.02,78.79 -31.37,119.03 -87.46,340.27 -150.48,631.59 -103.77,981.7l5.06 37.93c16.06,120.38 -25.98,231.32 -117.78,310.83 -91.79,79.52 -207.6,105.29 -324.45,72.22 -323.2,-91.46 -853.81,-232.51 -1100.88,-535.76 -25.09,50.26 -52.78,98.06 -83.37,142.76 -3.64,5.32 -6.86,9.78 -10.78,14.9 -286.43,374.69 -915.03,659.85 -1379,721.78 -568.2,75.85 -1030.47,-127.67 -1331.83,-501.85 -142.28,402.05 -487.47,821.91 -924.25,880.21 -431.62,57.62 -835.23,-327.63 -1092,-629.14 -176.86,-195.28 -312.54,-374.48 -439.94,-607.19 -21.53,-39.32 -42.61,-79.24 -63.28,-119.63l-18.66 205.86c-0.24,2.67 -0.47,4.95 -0.77,7.61 -43.21,383.22 -88.02,758.78 -152.36,1139.31 -19.12,113.09 -84.65,202.08 -186.96,253.9 -102.32,51.82 -212.84,51.99 -315.31,0.48 -249.61,-125.45 -532.66,-265 -759.38,-428.27 -178.79,-128.76 -329.93,-287.06 -360.35,-515.04 -16.24,-121.65 -18.44,-254.69 -21.08,-377.47 -3.96,-184.18 -3.87,-368.71 -2.34,-552.92 3.49,-419.37 14.24,-840.78 36.31,-1259.6 41.66,-790.4 100.45,-1582.7 189.71,-2369.23 63.46,-559.16 140.1,-1142.94 270.01,-1690.84 24.25,-102.24 85.27,-180.72 178.38,-229.41 93.11,-48.68 192.38,-54.02 290.17,-15.6 265.17,104.19 516.58,219.13 749.06,385.61 239.59,171.56 350.51,345.55 389.76,639.62 45.9,343.88 34.11,733.07 20.66,1079.32 -4.35,111.98 -9.62,224.06 -15.68,336.18 25.47,-66.15 48.05,-127.79 67.36,-182.56 248.95,-706.24 416.04,-1491.31 475.1,-2239.07 8.99,-113.86 65.92,-207.94 162.61,-268.74 96.69,-60.79 206.15,-71.33 312.66,-30.09 552.83,214.03 1073.4,668.21 1155.65,1284.42 76.72,574.74 -224.68,1477.58 -492.1,1995.33 -213.4,413.16 -448.21,778.09 -732.4,1131.1 95.28,138.86 186.27,279.88 270.79,427.24 102.61,178.87 197.7,363.94 290.21,549.65 91.63,-44.91 177.1,-98.96 281.83,-170.04 14.9,-10.12 30.22,-19 45.85,-26.63 16.81,-612.85 193.5,-1256.67 442.46,-1788.19 261.18,-557.63 756.53,-1303.21 1422.63,-1392.12 613.73,-81.93 1199.74,283.94 1430.98,834.42 42.09,-251.42 93.33,-499.8 151.17,-749.46 41.24,-177.98 210.98,-293.8 391.74,-267.3 240.54,35.27 577.88,104.05 802.19,197.68 3.44,1.43 6.36,2.7 9.76,4.25 129.71,58.83 219.1,138.91 273.65,248 28.94,-42.86 58.25,-85.31 87.92,-127.27 150.87,-213.36 401.76,-565.83 680.16,-602.98 217.84,-29.08 613.95,113.45 811.64,216.87 3.13,1.64 5.77,3.07 8.85,4.8 147.75,82.78 231.8,193.01 277.91,334.66 15.73,-20.96 31.44,-41.9 47.1,-62.82 1.65,-2.21 3.08,-4.08 4.78,-6.25 209.51,-267.15 510.45,-689.63 871.91,-737.88 252.63,-33.72 537.5,76.61 752.49,203.24 229.01,126.08 336.16,246.17 371.55,511.32 44.28,331.67 8.06,757.81 -22.4,1091.09 -32.33,353.85 -76.79,708.29 -129.26,1060.95 43.9,-13.36 87.96,-18.25 130.76,-14.99 8.77,-925.38 41.57,-1819.19 184.59,-2741.26 16.53,-106.6 73.89,-191.65 166.53,-246.92 92.63,-55.28 194.72,-65.36 296.38,-29.29 202.64,71.91 411.76,141.78 611.28,221.59 91.85,36.74 159.73,71.97 240.01,126.53 10.26,6.71 20.06,13.67 29.4,20.86 7.54,-12.46 15.11,-24.83 22.71,-37.11 135.17,-218.47 353.22,-548.13 629.25,-584.97 231.26,-30.87 585.85,173.29 781.61,283.94 347.83,196.61 573.5,583.85 696.58,979.49 79.97,-451.11 186.37,-908.57 332.33,-1322.18 63.09,-178.8 257.59,-274.93 437.95,-216.48 249.26,80.78 425.17,165.3 650.88,297.71 221.15,121.49 334.3,228.56 369.55,492.63 19.67,147.32 17.1,311.74 13.54,460.3 -5.14,214.07 -18.27,428.69 -34.47,642.18 -24.32,320.56 -55.94,642.35 -94.99,962.77 24.09,-4.82 48.33,-7.01 72.43,-6.59 8.49,-186.6 17.22,-373.18 25.42,-559.66 34.75,-790.62 167.81,-1515.98 373.57,-2280.84 48.05,-178.64 225.97,-288.78 407.29,-252.15 333.95,67.47 892.35,194.17 1099.79,525.53 51.3,-66.08 105.28,-131.19 162.55,-195.39 207.71,-232.83 544.16,-590.56 869.27,-633.95 224.19,-29.93 482.16,84.25 680.31,179.03 257.19,123.01 380.96,282.07 418.88,566.18 40.03,299.8 19.09,678.68 -11.81,1013.52zm-15124.87 2606.59c-51.37,89.42 -108.98,175.27 -172.08,256.55 48.58,-21.88 101.36,-32.03 154.78,-29.69 5.61,-75.67 11.41,-151.3 17.3,-226.86zm10307.01 -5633.5c511.6,-68.29 893.54,289.05 959.71,784.76 66.9,501.15 -237.15,983.12 -753.13,1051.99 -498.47,66.54 -926.98,-250.39 -993.83,-751.24 -70.66,-529.3 242.24,-1012.77 787.25,-1085.51zm-2456.12 4937.43c22.08,-154.69 27.78,-312.36 19.28,-465.68 -9.09,24 -17.92,48.57 -26.53,73.8 -40.18,117.73 -74.54,242.23 -104.57,370.06 37.95,1.14 75.76,8.41 111.82,21.82zm8959.76 -1109.61c86.18,-126.22 153.17,-267.96 207.75,-419.44 93.23,-258.78 151.66,-548.97 188.2,-843.95 -6.79,12.45 -13.53,25.03 -20.24,37.76 -1.84,3.49 -3.45,6.43 -5.4,9.86 -177.09,311.33 -341.94,803.99 -370.31,1215.77z"/>
  <path class="fil1" d="M3579.54 10114.64c5.69,-29.71 17.68,-156.77 47.99,-363.49 54.39,118.21 96.76,218.71 124.58,282.56 412.93,996.82 527.38,1203.52 855.52,1565.05 309.17,364.08 583.55,539.77 782.66,513.19 265.51,-35.44 552.45,-343.97 658.6,-705.57 70.13,-269.93 94.11,-524.06 71.93,-907.13 -265.47,180.19 -401.37,246.59 -652.33,318.69 -370.55,-751.56 -472.98,-940.56 -828.32,-1433.58 343.2,-393.25 601.06,-775.1 862.69,-1273.27 305.88,-600.58 509.31,-1390.16 456.15,-1788.4 -55.69,-417.2 -416.07,-803.4 -935.09,-1004.34 -125.57,1589.86 -741.01,3341.63 -1351.6,3828.46 132.54,-1465.32 167.81,-2357.92 108.33,-2803.58 -26.58,-199.11 -86.65,-287.6 -246.61,-401.37 -192.19,-138.4 -398.28,-236.36 -673.28,-344.41 -191.42,807.27 -364.41,2258.7 -450.76,3997.74 -44.77,749.1 -50.93,1859.77 -15.49,2125.27 24.04,180.16 247.22,333.74 929.98,676.89 70.11,-414.7 96.63,-649.85 149.66,-1120.18l105.39 -1162.53zm5484.47 -124.07c-404.51,440.03 -726.87,627.82 -1191.49,689.84 -123.27,16.46 -219.35,19.63 -415.32,-2.47 -32.88,-101.76 -40.48,-158.66 -49.34,-225.03 -11.39,-85.34 -20.25,-151.71 -20.27,-296.47 386.23,-70.86 644.13,-163.19 898.85,-351.61 510.73,-367.34 800.78,-1014.08 724.84,-1582.99 -72.15,-540.48 -589.3,-944.34 -1129.77,-872.2 -843.9,112.65 -1714.72,1975.7 -1540.05,3284.22 101.25,758.56 612.72,1192.13 1304.91,1099.73 436.17,-58.22 950.06,-329.47 1147.25,-587.42 145.36,-212.42 232.54,-571.49 270.39,-1155.6zm-935.21 -1872.91c90.52,895.11 -241.86,1730.85 -734.28,1873.79 -20.98,-807.88 267.16,-1541.21 734.28,-1873.79zm2228.15 3244.47c-45.57,-341.35 -14.63,-615.7 111.72,-1115.11 223.02,-859.76 472.64,-1375.62 932.13,-1909.85 -151.6,744.06 -251.32,1876.87 -193.1,2313.04 20.26,151.72 65.78,203.55 249.12,275.59 184.59,81.51 478.55,187.03 618.9,226.21 81.37,-1197.93 728.45,-2712.64 1334.62,-3160.29 -170.57,746.59 -296.19,1902.17 -249.36,2253 22.78,170.68 96.12,286.35 235.84,393.16 201.68,137.15 505.12,241.4 656.83,221.15 246.54,-32.9 567.57,-664.46 705.28,-1368.06 -324.29,101.2 -351.46,114.47 -531.62,138.52 194.53,-1145.47 289.2,-2171.46 234.77,-2579.18 -17.72,-132.75 -41.74,-168.15 -197.89,-253.47 -199.14,-118.18 -400.18,-178.2 -532.92,-160.48 -151.71,20.25 -304.67,175.78 -642.81,606.95 -401.32,536.12 -457.58,620.84 -659.81,985.61 49.88,-421.64 53.64,-682.73 22,-919.77 -18.99,-142.23 -55.03,-195.33 -138.48,-242.09 -176.38,-92.27 -498.79,-194 -603.1,-180.08 -170.67,22.78 -633.93,673.33 -1111.71,1576.73 31.56,-341.99 34.03,-757.31 8.72,-946.95 -13.92,-104.3 -47.43,-138.43 -129.62,-175.71 -122.64,-51.19 -442.52,-133.96 -718.14,-174.37 -159.2,687.16 -222.98,1149.27 -311.32,2222.66 -61.83,838.23 -85.15,1314.25 -63.64,1475.44 25.32,189.64 306.65,345.11 978.65,535.28l-5.06 -37.93zm4961.6 -4908.7c-129.67,836.04 -174.03,1515.92 -182.46,2971.12 -2.63,703.26 54.26,2141.69 103.62,2511.49 17.72,132.75 64.51,194.06 221.93,288.85 230.11,133.35 455.18,228.77 714.36,290.68 -1.39,-878.04 -9.03,-1224.46 -3.36,-1398.93 12.61,-194.7 23.31,-476 82.2,-1263.98 241.34,506.62 469.58,698.13 801.45,653.83 360.31,-48.1 654.42,-375.28 868,-944.24 248.55,-668.52 348.53,-1365.48 270.27,-1951.78 -70.66,-529.41 -314.11,-979.46 -616.93,-1151.36 -302.61,-170.32 -496.69,-250.57 -563.07,-241.71 -170.67,22.78 -582.94,693.86 -762.6,1227.73 -82.69,-547.11 -95.34,-641.93 -158.56,-681.74 -106.21,-72.68 -106.21,-72.68 -774.85,-309.96zm1692.46 2846.31c-49.31,-80.28 -85.35,-133.38 -97.37,-151.08 -12.01,-17.69 -46.78,-61.31 -91.05,-103.65 -34.12,33.51 -68.25,67.02 -94.17,89.78 -170.65,167.54 -178.87,178.29 -409.14,477.64 185.45,-1285.81 330.36,-1718.53 750.04,-2189.55 135.94,223.14 194.12,369.78 224.29,595.78 65.81,493.05 -1.33,1002.25 -198.51,1404.96l-84.09 -123.88zm3175.41 -504.29c-190.27,92.95 -274.34,113.83 -488.63,171.39 148.41,-984.91 239.27,-2184.1 192.44,-2534.94 -16.46,-123.26 -39.22,-149.17 -195.37,-234.49 -240.87,-141.57 -354.03,-194.02 -586.04,-269.21 -343.11,972.29 -584.32,2780.25 -483.07,3538.81 68.35,512.03 352.84,763.58 798.5,704.1 170.68,-22.79 343.24,-103.73 472.82,-217.53 69.52,-57.54 106.81,-139.72 149.13,-328.74 80.24,-338.84 100.44,-476.65 140.22,-829.39zm-739.04 -4668.92c-331.87,44.3 -534.74,331.96 -486.64,692.28 40.5,303.42 287.69,492.39 600.6,450.63 303.42,-40.51 496.82,-326.89 452.52,-658.76 -44.3,-331.88 -272.54,-523.38 -566.48,-484.15zm4743.39 4156.93c-329.96,130.89 -403.29,159.99 -591.66,194.78 208.07,-827.19 350.53,-2145.86 284.71,-2638.93 -21.52,-161.19 -68.31,-222.5 -222.98,-296.75 -237.07,-113.12 -388.16,-160.51 -482.98,-147.85 -142.23,18.98 -360.29,192.85 -654.4,520.03 -251.56,284.5 -427.25,558.88 -696.05,1075.69 12.16,-414.99 17.8,-734.24 1.35,-857.49 -22.78,-170.68 -322.86,-322.04 -898.13,-438.27 -225.76,839.2 -333.34,1479.26 -361.89,2205.29 -64.7,1395.15 -64.7,1395.15 -50.78,1499.45 15.19,113.78 61.98,175.1 228.88,268.63 220.43,133.04 457.5,246.16 680.02,322.62 77.99,-1223.22 657.68,-2592.21 1355.7,-3147.02 -160.08,463.7 -205.56,701.39 -258.16,1247.26 -38.5,362.22 -46.86,805.67 -26.61,957.39 41.77,312.9 202.98,436.15 709.13,540.69 318.61,73.29 318.61,73.29 328.1,72.02 132.74,-17.72 487.27,-759.91 655.33,-1380.71l0.42 3.17zm2482.79 -3307.11c11.39,85.33 18.36,209.86 30.39,372.33 -174.49,-150.43 -279.43,-213.63 -423.58,-281.25 -163.1,-65.08 -381.83,-113.09 -457.69,-102.97 -170.67,22.78 -592.23,551.95 -966.36,1219.55 -358.97,636.62 -552.9,1569.69 -469.36,2195.5 35.43,265.5 142.93,492.42 309.21,653.6 175.76,159.9 604.38,334.31 784.54,310.26 18.96,-2.53 65.1,-18.34 139.7,-37.94 17.69,-12.02 82.8,-30.36 147.91,-48.7 -171.28,235.18 -446.23,416.64 -673.81,447.02 -3.75,261.08 5.75,404.58 27.27,565.77 39.24,293.94 103.75,488 206.8,609.35 158.07,171.92 641.05,319.78 934.99,280.54 161.19,-21.52 301.51,-127.11 471.53,-371.78 235.73,-330.63 514.43,-917.94 678.7,-1422.42 285.6,-897.05 471.81,-2755.58 359.17,-3599.47 -46.83,-350.84 -106.27,-506.97 -205.54,-599.88 -197.26,-176.35 -452.02,-277.45 -917.92,-369.68l24.05 180.17zm-1014.11 3320.16c-60.72,-165.61 -81.58,-249.68 -95.5,-353.98 -62.02,-464.61 109.81,-1201.72 406.84,-1723.92 207.92,-394.49 436.09,-637.26 738.22,-832.01 -23.15,1634.1 -339.72,2515.99 -1049.56,2909.91zm528.73 1792.06c-180.17,-120.71 -275.65,-329.94 -326.28,-709.22 -5.06,-37.93 -11.39,-85.34 -12.04,-162.46 243.98,-196.63 525.87,-543.09 769.18,-961.6 -49.25,354.01 -56.21,374.23 -292.48,1351.57 -56.24,229.48 -64.45,240.22 -138.38,481.71z"/>
  <path class="fil0" d="M26184.69 11846.15c49.71,-82.35 103.89,-162.19 161.96,-239.09 88.72,-117.46 232.86,-165.9 374.51,-125.86 31.78,8.98 61.92,18.42 90.62,28.47 75.69,-139.12 183.22,-248.86 337.61,-269.48 159.72,-21.33 386.33,54.77 536.27,110.07 199.29,73.51 328.09,204.7 356.75,419.44 12.46,93.29 12.82,205.6 7.79,319.35 19.6,22.9 36.57,48.79 50.55,77.41 23.09,47.29 35.05,91.95 41.94,143.5 19.09,142.92 -15.33,397.35 -68.23,536.14 -31.13,85.84 -82.08,154.13 -146.68,209.43 -38.95,142.11 -86.8,270.76 -157.67,410.1 -175.49,345.02 -511.28,699.63 -912.83,753.23 -244.76,32.67 -461.19,-56.9 -630.46,-210.14 -83.26,166.12 -195.66,339.18 -395.13,365.8 -89.46,11.94 -193.04,-19.64 -280.83,-40.04 -174.03,-36.33 -325.33,-92.22 -435.46,-191.23 -2.41,23.02 -4.31,45.36 -5.68,66.9 -7.18,112.56 -61.28,206.36 -155.12,268.93 -93.84,62.57 -201.23,76.46 -307.89,39.81 -136.32,-46.84 -269.62,-111.26 -393.24,-185.49 -70.71,-40.19 -130.42,-85.88 -176.79,-141.11 -23.09,32.67 -47.73,66.27 -74.03,101.06 -119.18,157.69 -277.18,334.17 -484.27,361.81 -171.49,22.9 -438.03,-49.95 -588.15,-148.34 -71.6,142.43 -147.97,251.3 -337.87,276.64 -191.45,25.55 -430.32,-89.77 -585.06,-198.54 -82.08,-57.7 -137.66,-120.55 -176.82,-190.02 -188.03,292.56 -483.85,559.54 -827.95,605.47 -358.53,47.86 -656.28,-166.6 -834.03,-459.2 -3.22,95.65 -4.55,187.6 -4.95,271.16 -0.57,120.01 -55.96,222.94 -155.81,289.53 -99.84,66.58 -216.16,78.16 -327.17,32.56 -140.63,-57.76 -267.48,-114.07 -398.42,-190.41 -66.66,-36 -119.62,-80.45 -159.44,-133.99 -144.91,241.99 -377,491.6 -651.08,528.18 -216.2,28.86 -485.29,-74.46 -653.93,-209.55 -9.02,-7.23 -17.81,-14.53 -26.36,-21.91 18.22,29.51 32.2,62.36 41.61,98.15 10.74,40.87 23.11,82.51 28.7,124.4 28.28,211.89 -52.82,521.91 -214.7,667.23 -121.93,110.18 -320.86,160.88 -480.17,182.14 -193.1,25.77 -385.45,-63.43 -539.56,-172 -125.96,-88.74 -265.42,-230.87 -316.75,-384.86 -359.85,40.19 -623.98,-182.7 -745.33,-488.57 -18.62,27.86 -37.83,55.06 -57.64,81.56 -261.79,350.3 -764.09,658.6 -1198.4,716.57 -246.79,32.94 -547.81,-69.93 -758.3,-196.7 -2.63,-1.58 -4.86,-2.96 -7.45,-4.61 -166.87,-106.28 -267.92,-222 -294.77,-423.13 -39.99,-299.53 -21.25,-659.58 0.5,-961.03 17.01,-235.81 41.29,-476.55 76.6,-713.8 -103.94,33.7 -215.45,16.69 -308.29,-49.64 -113.34,-80.99 -166.15,-212.14 -140.56,-349.07 50.46,-270.02 169.67,-721.02 348.11,-933.68 214.43,-255.55 823.57,-371.2 1140.1,-413.45 846.83,-113.03 1508.63,360.88 1622.73,1215.7 6.88,51.51 12.36,104.06 16.45,157.45 116.08,-145.11 251.54,-270.31 422.63,-386.44 80.62,-54.72 169.74,-72.73 265.27,-53.6 46.04,9.22 89.05,19.88 129.8,32.17 14.93,-17.4 31.86,-33.66 50.73,-48.67 85.42,-67.96 186.81,-91.42 293.39,-67.89 136.96,30.25 283.06,69.17 406.78,135.64 60.06,-447.05 143.91,-854.24 338.14,-1282.34 42.23,-93.08 114.02,-157.12 211.3,-188.5 97.28,-31.37 192.96,-21.34 281.62,29.53 204.07,117.1 484.46,272.53 518.83,530.14 21.6,161.85 -0.08,375.82 -16.05,538.53 -0.4,4.14 -0.81,8.29 -1.22,12.43 20.63,1.33 41.54,4.51 62.69,9.56 70.03,16.7 128.44,50.37 174.41,100.41 52.43,-145.47 193.5,-239.71 351.57,-229.48 28.09,1.82 57.13,5.83 86.66,11.73 89.61,-144.3 274.26,-205.81 434.96,-137.06 130.6,55.87 275.38,137.85 388.76,245.39 28.03,-41.55 57.2,-82.37 87.42,-122.38 77.13,-102.12 196.16,-152.07 319.02,-137.06 -15.96,-36.72 -27.14,-76.12 -32.66,-117.48 -25.72,-192.69 70.3,-380.79 160.01,-544.72 109.56,-200.22 226.83,-352.69 467.83,-384.86 303.47,-40.52 619.55,62.55 665.26,405.08 28.73,215.26 -55.6,393.15 -197.39,539.51 18.94,8.25 37.15,17.1 54.59,26.57 18.41,-16.04 38.89,-30.44 61.42,-43.14 85.01,-47.94 175.5,-58.47 269.25,-31.32 129.42,37.47 237.75,79.63 355.85,144.21 37.04,19.52 70.91,39.84 101.44,61.8 11.63,-8.89 23.97,-17.21 37,-24.94 93.35,-55.39 196.27,-65.02 298.27,-27.91 24.11,8.78 47.78,17.09 71.04,25.35 30.23,-120.28 73.98,-226.53 133.82,-295.44 3.89,-4.48 7.3,-8.22 11.41,-12.51 97.95,-102.36 395.62,-261.55 535.06,-280.16 182.43,-24.35 336.68,56.98 446.05,184.68 79.81,-96.69 208.67,-146.47 339.29,-120.08 155.56,31.43 341.32,79.06 485.02,171.75 131.48,-142.39 299.51,-295.76 491.95,-321.44 150.99,-20.15 298.66,39.21 432.15,103.06 77.18,36.92 139.27,81.77 187.1,136.63zm-11662.1 2566.85c164.27,-287.82 234.58,-775.34 196.94,-1057.31 -4.36,-32.61 -18.52,-89.42 -38.31,-131.64 -21.16,71.05 -37,175.25 -47.53,237.76 -29.63,175.79 -51.93,353.88 -71.01,531.11 -14.57,135.27 -28.85,276.95 -40.09,420.08z"/>
  <path class="fil1" d="M14374.28 13045.17c-196.99,35.68 -440.09,147.9 -641.38,292.07 -122.54,593.5 -190.94,1522.29 -137.4,1923.37 10.46,78.36 38.43,112.17 135.87,174.23 178.58,107.55 397.72,167.45 531.42,149.6 331.91,-44.3 753.24,-297.61 964.35,-579.17 330.33,-442.93 501.09,-1202.39 413.71,-1857.01 -86.76,-650.02 -561.04,-1004.32 -1229.5,-915.09 -428.73,57.22 -825.18,180.53 -918.29,291.5 -93.11,110.96 -209.24,436.15 -272.19,773 488.64,-276.37 770.45,-379.68 1153.08,-430.75 225.89,-30.16 381.71,-22.81 467.47,22.05 106.04,56.23 199.8,231.4 225.03,420.41 66.46,497.89 -106.16,1173.14 -372.59,1462.08 -163.47,181.36 -330.04,269.28 -541.48,302.19 -18.53,-560.58 116.52,-1798.58 221.9,-2028.48zm2338.6 2334.22c-57.77,59.33 -77.13,90.07 -72.83,122.33 6.77,50.71 100.53,155.51 188.74,218.81 118.96,82.65 222.53,120.44 291.69,111.21 133.69,-17.84 250.48,-56.89 292.27,-95.32 62.99,-55.33 116.75,-250.19 101.98,-360.83 -1.84,-13.83 -10.76,-45.49 -20.29,-81.76l-268.6 167.24 -78.68 -27.04c-19.67,-6.75 -35.34,-18.73 -36.57,-27.95 -1.24,-9.23 -1.24,-9.23 36.25,-79.92l137.35 -201.33 46.1 -6.15c54.7,-12 59.31,-12.62 78.67,-43.35 8,-10.45 22.12,-45.18 52.85,-96.21 101.7,-187.18 123.21,-236.97 203.4,-444.75 -59.32,12.61 -82.37,15.69 -128.47,21.84 -41.5,5.54 -73.76,9.85 -143.53,14.47 102.29,-393.72 163.05,-993.04 128.59,-1251.21 -14.76,-110.63 -126.65,-175.47 -431.23,-242.73 -0.61,65.77 -3.67,113.1 -5.2,136.77 -5.53,28.88 -10.44,62.39 -11.36,90.66 0.62,4.61 -7.68,47.95 -7.37,85.44 -169.06,-141.65 -274.48,-193.28 -443.22,-227.06 -240.93,163.54 -399.8,344.28 -556.5,646.74 -179.43,343.01 -259.91,724.43 -219.29,1028.69 38.77,290.44 212.13,464.37 433.42,434.83 212.06,-28.31 397.67,-184.47 617.06,-509.36 -4.59,71 -3.66,113.11 1.26,149.98 11.69,87.6 30.44,122.63 98.98,179.17l-285.47 286.79zm-217.38 -609.11c-39.97,-88.51 -54.72,-128.77 -62.72,-188.7 -26.46,-198.23 59.24,-505.28 213.49,-755.79 126.9,-209.31 233.83,-322.12 412.38,-425.73 -122.2,842.13 -242.63,1135.05 -563.15,1370.22zm2612.21 -1310.58l-31.96 41.79c-3.99,5.24 -19.98,26.14 -41.18,43.04l-3.4 -130.92c-9.86,-214.53 -9.86,-214.53 -15.4,-256.01 -10.46,-78.38 -38.14,-145.06 -128.82,-297.19 -168.72,106.98 -264.29,199.51 -440.97,457.7 105.62,-685.08 150.73,-1155.63 129.81,-1312.37 -7.38,-55.32 -107.28,-135.83 -346.1,-272.86 -181.28,399.56 -258.06,738.26 -342.18,1443.93 -64.45,571.67 -81.6,1005.63 -45.29,1277.63 26.46,198.23 78.72,308.56 194.3,401.05 110.35,88.5 287.38,149.33 388.8,135.79 138.31,-18.46 328.21,-212.73 450.19,-458.93 102.62,-215.46 144.39,-394.64 153.89,-639.91 105.4,-89.15 122.6,-171.2 106.27,-469.32l-27.96 36.58zm-703.18 145.47c62.72,188.7 130.35,273.51 285.57,346.64 -89.09,246.5 -252.87,460.75 -394.86,521.92 39,-305.5 51.26,-424.44 109.29,-868.56zm1898.09 -333.13c-80.21,67.01 -93.43,73.47 -157.35,86.69 27.96,-106.96 56.52,-209.31 66.05,-243.42 36.55,-112.8 47.61,-170.58 42.68,-207.46 -13.54,-101.42 -166.92,-231.09 -375.93,-320.5 -43.01,99.58 -48.54,128.47 -82.93,292.6 -84.22,-68.52 -228.99,-133.66 -323.65,-139.79 -68.5,295.36 -90.9,514.19 -96.39,824.6 -10.94,831.98 -10.94,831.98 8.14,974.9 6.77,50.71 19.06,72.52 69.47,98.64 117.11,68.82 197.02,105.08 360.84,172.37 2.09,-441.35 41.68,-883 103.1,-1125.81 84.53,35.64 123.26,44.54 178.58,37.16 106.03,-14.16 147.21,-57.18 178.84,-206.86 21.19,-87.3 27.64,-144.46 28.55,-243.12zm1628.88 -170.5c-7.99,10.44 -19.98,26.13 -32.58,37.19 -37.18,37.81 -41.18,43.03 -80.21,67.01 24.87,-270.77 35.58,-506.81 22.04,-608.23 -9.23,-69.15 -37.2,-102.95 -130.94,-137.36 -167.82,-62.06 -313.51,-98.92 -368.83,-91.54 -59.93,8 -152.09,231.45 -197.24,490.86 -109.74,-154.27 -192.11,-208.96 -372.53,-259.96 -338.93,448.77 -488.23,947.29 -424.85,1422.13 49.84,373.41 333.26,668.73 609.86,631.81 230.5,-30.77 491.09,-257.94 647.18,-564.99 74.36,-146 115.52,-259.41 162.82,-467.49 66.08,-32.29 108.49,-66.09 125.38,-115.27 31.65,-79.31 60.5,-284.92 49.43,-367.9 -1.85,-13.82 -3.08,-23.05 -9.53,-36.26zm-566.99 357.21c-72.19,267.71 -264.54,584.29 -417.58,703.26 -45.2,-92.51 -59.95,-132.76 -71.64,-220.35 -22.16,-165.97 2.4,-403.85 62.3,-622.99 42.38,-174.58 87.24,-260.33 199.09,-406.65 5.87,149.37 5.87,149.37 11.41,190.86 15.38,115.25 87.32,232.34 216.42,355.87zm87.92 -1907.38c-82.98,11.08 -124.16,54.12 -207.12,205.96 -94.32,172.12 -128.73,265.87 -120.12,330.4 6.77,50.71 53.8,86.67 99.9,80.51 50.71,-6.76 253.84,-137.11 346.65,-215.18 122,-105.44 166.24,-195.81 152.71,-297.23 -12.31,-92.2 -101.45,-127.23 -272.02,-104.46zm1934.1 2116.08c-40.65,-585.79 -40.65,-585.79 -46.19,-627.28 -24.61,-184.4 -60.59,-278.13 -133.74,-334.06 -47.65,-40.56 -57.48,-43.94 -274.47,-122.89 -92.43,608.23 -197.18,913.13 -369.27,1100.33 26.7,-256.94 25.08,-796.32 -3.84,-1013 -7.38,-55.32 -23.67,-71.91 -109.42,-116.77 -96.21,-52.85 -165.68,-81.11 -287.7,-116.44 -109.66,408.77 -149.21,1061.58 -87.06,1527.19 30.15,225.89 50.76,274.76 133.74,334.06 118.96,82.66 272.95,146.56 337.48,137.95 32.28,-4.31 32.28,-4.31 102.02,-149.69 241.81,-473.34 241.81,-473.34 311.85,-721.99l15.08 148.14c4.01,65.15 10.16,111.25 12.62,129.69 27.08,202.84 71.35,323.62 128.83,367.56 77.77,55.31 272.62,109.07 355.61,97.99 59.93,-8 147.51,-90.08 251.37,-225.93 259.03,-344.26 320.48,-516.69 350.23,-961.73 97.1,-116.18 133.03,-303.98 116.7,-602.09 -39.33,56.86 -51.93,67.93 -98.94,102.35 -0.32,-37.49 -0.02,-70.38 -1.86,-84.2 -3.09,-93.44 -9.56,-177.03 -16.33,-227.74 -20.92,-156.74 -126.97,-283.36 -223.79,-270.43 -55.31,7.38 -287.34,132.2 -328.52,175.23 -69.13,79.61 -124.7,471.79 -94.55,697.68 14.77,110.64 75.94,182.24 216.09,248 -15.63,269.54 -89.06,457.63 -239.94,627.92l-16 -119.85zm2717.68 -309.59c-160.42,63.65 -196.08,77.79 -287.66,94.7 101.15,-402.17 170.42,-1043.29 138.42,-1283.01 -10.46,-78.37 -33.21,-108.18 -108.4,-144.29 -115.27,-54.99 -188.73,-78.03 -234.83,-71.88 -69.15,9.23 -175.16,93.77 -318.16,252.84 -122.3,138.32 -207.72,271.72 -338.41,522.99 5.91,-201.77 8.65,-356.98 0.65,-416.91 -11.07,-82.98 -156.96,-156.57 -436.66,-213.08 -109.76,408.01 -162.07,719.21 -175.95,1072.19 -31.45,678.3 -31.45,678.3 -24.68,729.01 7.39,55.33 30.13,85.14 111.28,130.61 107.17,64.68 222.43,119.68 330.62,156.85 37.92,-594.71 319.75,-1260.3 659.13,-1530.05 -77.84,225.45 -99.94,341.01 -125.51,606.41 -18.73,176.11 -22.8,391.71 -12.95,465.48 20.31,152.13 98.68,212.04 344.77,262.87 154.91,35.63 154.91,35.63 159.52,35.01 64.53,-8.61 236.91,-369.45 318.61,-671.27l0.21 1.53zm1682.03 -1037.83c-7.99,10.45 -19.98,26.13 -32.58,37.2 -37.18,37.8 -41.18,43.02 -80.21,67.01 24.87,-270.77 35.58,-506.81 22.04,-608.23 -9.23,-69.15 -37.2,-102.96 -130.94,-137.37 -167.82,-62.06 -313.51,-98.92 -368.83,-91.53 -59.92,8 -152.09,231.45 -197.24,490.85 -109.74,-154.27 -192.11,-208.96 -372.53,-259.96 -338.93,448.77 -488.23,947.3 -424.85,1422.14 49.84,373.41 333.26,668.72 609.87,631.8 230.49,-30.77 491.09,-257.93 647.17,-564.98 74.36,-146.01 115.53,-259.42 162.82,-467.5 66.08,-32.28 108.49,-66.09 125.38,-115.27 31.65,-79.3 60.51,-284.92 49.43,-367.89 -1.85,-13.83 -3.08,-23.06 -9.53,-36.27zm-566.99 357.22c-72.19,267.7 -264.54,584.29 -417.58,703.25 -45.19,-92.5 -59.95,-132.75 -71.64,-220.35 -22.16,-165.97 2.4,-403.85 62.3,-622.99 42.38,-174.58 87.24,-260.33 199.1,-406.65 5.86,149.37 5.86,149.37 11.4,190.86 15.38,115.25 87.32,232.34 216.42,355.88z"/>
 </g>
</svg>